Coordinates
version=1
nRows=17
nColumns=33
inDegrees=yes

Units are S.I. units (second, meters, Newtons, ...)
Angles are in degrees.

endheader
time	ground_thorax_rot_x	ground_thorax_rot_y	ground_thorax_rot_z	ground_thorax_tx	ground_thorax_ty	ground_thorax_tz	clav_prot_r	clav_elev_r	scapula_abduction_r	scapula_elevation_r	scapula_upward_rot_r	scapula_winging_r	shoulder_elv_r	plane_of_elev_r	axial_rot_r	elbow_flexion_r	pro_sup_r	wrist_flex_r	wrist_dev_r	clav_prot_l	clav_elev_l	scapula_abduction_l	scapula_elevation_l	scapula_upward_rot_l	scapula_winging_l	shoulder_elv_l	plane_of_elev_l	axial_rot_l	elbow_flexion_l	pro_sup_l	wrist_flex_l	wrist_dev_l	
5.6800	37.016907	11.689046	17.617827	-151.137063	795.860616	4.794278	15.392488	37.176189	39.848621	44.999809	-43.558282	2078.793200	-3708.520017	142.343030	180.000000	1810.906476	42.585178	22.480372	13.801755	7.675052	-45.000000	-38.467328	45.000000	-44.999971	-2429.938787	-453.403051	133.888335	-180.000000	368.838025	27.133344	10.683660	-20.259873	
5.6900	37.015961	11.853131	17.796375	-147.276648	793.506395	4.879976	15.573849	37.302185	39.927615	44.999657	-43.317828	2079.017190	-3708.839661	142.393354	180.000000	1810.694105	42.846464	22.408640	14.001314	7.566188	-45.000000	-38.415756	45.000000	-44.999948	-2430.362779	-453.658116	133.919626	-180.000000	368.681020	27.590507	10.773337	-20.213068	
5.7000	37.025653	12.019365	17.965448	-143.424810	791.185528	4.988035	15.768621	37.422766	40.021436	44.999386	-43.107118	2079.234995	-3709.156780	142.444040	180.000000	1810.471550	43.151691	22.334763	14.175011	7.449221	-45.000000	-38.363896	45.000000	-44.999907	-2430.786739	-453.919367	133.956109	-180.000000	368.510983	28.101767	10.853491	-20.179340	
5.7100	37.040900	12.196069	18.125443	-139.588716	788.914257	5.117988	15.920914	37.521598	40.105500	44.998901	-42.903827	2079.458388	-3709.470043	142.504666	180.000000	1810.238217	43.484175	22.259372	14.327333	7.361424	-45.000000	-38.325786	45.000000	-44.999833	-2431.195290	-454.182185	133.981355	-180.000000	368.324352	28.651929	10.931693	-20.157497	
5.7200	37.069292	12.375177	18.265350	-135.777320	786.712977	5.271912	16.041925	37.610206	40.182386	44.998032	-42.682637	2079.684858	-3709.783657	142.581209	180.000000	1809.994189	43.837259	22.183181	14.460403	7.288681	-45.000000	-38.301813	45.000000	-44.999702	-2431.597522	-454.444393	134.000218	-180.000000	368.123062	29.223702	11.006338	-20.146289	
5.7300	37.109523	12.562042	18.386550	-132.002557	784.607029	5.454243	16.119547	37.685688	40.239006	44.996472	-42.442497	2079.912748	-3710.094817	142.664528	180.000000	1809.735185	44.204402	22.104371	14.575186	7.245476	-45.000000	-38.292505	45.000000	-44.999466	-2431.989307	-454.700652	134.008143	-180.000000	367.909755	29.797811	11.078389	-20.144593	
5.7400	37.178060	12.738076	18.475570	-128.284668	782.631666	5.683035	16.240123	37.782875	40.313027	44.993686	-42.191912	2080.121100	-3710.409081	142.746164	180.000000	1809.457820	44.587202	22.019291	14.665703	7.176743	-45.000000	-38.282072	45.000000	-44.999042	-2432.399087	-454.948333	134.033485	-180.000000	367.702494	30.362333	11.134500	-20.152279	
5.7500	37.278941	12.914026	18.524696	-124.648850	780.828260	5.979786	16.337535	37.883831	40.379094	44.988672	-41.901484	2080.312998	-3710.721823	142.832277	180.000000	1809.163314	44.981268	21.928608	14.735620	7.127194	-45.000000	-38.277255	45.000000	-44.998285	-2432.812161	-455.188831	134.051464	-180.000000	367.504627	30.908691	11.179676	-20.166993	
5.7600	37.446044	13.064400	18.496338	-121.156516	779.280640	6.429768	16.489437	38.023933	40.480797	44.979758	-41.552514	2080.468719	-3711.043239	142.925739	180.000000	1808.851767	45.390185	21.827344	14.777445	7.041828	-45.000000	-38.269899	45.000000	-44.996927	-2433.264128	-455.428234	134.087799	-180.000000	367.354296	31.451249	11.197650	-20.185404	
5.7700	37.684611	13.201902	18.376839	-117.850826	778.048695	7.079896	16.641869	38.181197	40.593108	44.963603	-41.125683	2080.595470	-3711.362391	143.038960	180.000000	1808.536082	45.809880	21.717769	14.792091	6.954532	-45.000000	-38.276387	45.000000	-44.994499	-2433.746422	-455.665112	134.119877	-180.000000	367.255278	32.005161	11.195101	-20.207281	
5.7800	38.104711	13.265525	18.006229	-114.965584	777.411375	8.348372	16.911025	38.440919	40.787355	44.935187	-40.493129	2080.648416	-3711.725805	143.190474	180.000000	1808.210926	46.241568	21.584971	14.770332	6.800532	-45.000000	-38.299453	45.000000	-44.990137	-2434.372921	-455.924734	134.185202	-180.000000	367.335238	32.694917	11.101379	-20.185560	
5.7900	38.657116	13.279991	17.440174	-112.437146	777.275953	10.118306	17.179962	38.736794	41.025150	44.882827	-39.702794	2080.635084	-3712.104930	143.364014	180.000000	1807.891723	46.679663	21.435882	14.718134	6.660964	-45.000000	-38.346109	45.000000	-44.982358	-2435.083285	-456.207593	134.240564	-180.000000	367.552119	33.562135	10.929328	-20.126438	
5.8000	39.307811	13.229866	16.713950	-110.207050	777.547450	12.290989	17.499542	39.072442	41.331299	44.793106	-38.790374	2080.544537	-3712.499689	143.543500	180.000000	1807.576937	47.131133	21.272391	14.635781	6.498567	-45.000000	-38.406450	45.000000	-44.968327	-2435.871465	-456.500146	134.304798	-180.000000	367.898398	34.630045	10.665397	-20.029889	
5.8100	39.897962	13.174886	16.032540	-107.982785	777.847213	14.323801	17.751023	39.339949	41.635948	44.657114	-37.918042	2080.423303	-3712.853759	143.709996	180.000000	1807.286526	47.601938	21.118631	14.536086	6.375708	-45.000000	-38.477706	45.000000	-44.943462	-2436.598131	-456.756329	134.335112	-180.000000	368.216363	35.785028	10.381487	-19.942429	
5.8200	40.416253	13.096566	15.401341	-105.741492	778.121647	16.164683	17.994270	39.563597	41.960362	44.475695	-37.072861	2080.268235	-3713.183216	143.867277	180.000000	1807.013253	48.103878	20.977438	14.421901	6.248278	-45.000000	-38.553370	45.000000	-44.898175	-2437.273823	-456.966254	134.353906	-180.000000	368.506337	36.966454	10.074044	-19.854848	
5.8300	40.748427	13.043207	14.975908	-103.268808	778.089156	17.387976	18.145961	39.672446	42.251062	44.250875	-36.391111	2080.116769	-3713.440437	143.996217	180.000000	1806.776177	48.638816	20.866608	14.300432	6.160748	-45.000000	-38.626913	45.000000	-44.819132	-2437.789199	-457.106112	134.334761	-180.000000	368.648515	38.015966	9.815289	-19.808927	
5.8400	40.927481	12.995919	14.701394	-100.640649	777.823417	18.089169	18.260957	39.705307	42.521290	43.991304	-35.814655	2079.967629	-3713.646233	144.113957	180.000000	1806.569772	49.204728	20.783436	14.172348	6.070387	-45.000000	-38.707433	45.000000	-44.671743	-2438.176964	-457.186752	134.302674	-180.000000	368.675093	38.863445	9.607289	-19.794022	
